<svg width="41" height="41" viewBox="0 0 41 41" fill="none" xmlns="http://www.w3.org/2000/svg">
<path fill-rule="evenodd" clip-rule="evenodd" d="M30.4523 15.8006C30.3385 15.3783 30.116 14.9931 29.8071 14.6835C29.4982 14.3739 29.1136 14.1506 28.6915 14.0358C27.1266 13.6061 20.8661 13.5991 20.8661 13.5991C20.8661 13.5991 14.6065 13.5921 13.0406 14.0028C12.6188 14.1229 12.235 14.3494 11.9259 14.6605C11.6169 14.9716 11.393 15.357 11.2758 15.7796C10.8631 17.3445 10.8591 20.5902 10.8591 20.5902C10.8591 20.5902 10.8551 23.8519 11.2648 25.4008C11.4947 26.2572 12.1692 26.9337 13.0266 27.1645C14.6075 27.5942 20.8511 27.6012 20.8511 27.6012C20.8511 27.6012 27.1116 27.6082 28.6765 27.1985C29.0987 27.0839 29.4837 26.8611 29.7934 26.5521C30.1031 26.2432 30.3267 25.8587 30.4423 25.4368C30.856 23.8729 30.859 20.6282 30.859 20.6282C30.859 20.6282 30.879 17.3655 30.4523 15.8006ZM18.8635 23.5971L18.8685 17.6013L24.0718 20.6042L18.8635 23.5971Z" fill="#000137"/>
</svg>
