<svg width="288" height="90" viewBox="0 0 288 90" fill="none" xmlns="http://www.w3.org/2000/svg">
<path d="M22.6007 73.5477C19.8805 73.5477 17.6881 71.3918 17.6881 68.7169C17.6881 66.042 19.8805 63.8861 22.6007 63.8861H29.9492C32.6694 63.8861 34.8617 66.042 34.8617 68.7169C34.8617 71.3918 32.6694 73.5477 29.9492 73.5477H22.6007Z" fill="#000137"/>
<path d="M70.5487 73.5477C67.8285 73.5477 65.6362 71.3918 65.6362 68.7169C65.6362 66.042 67.8285 63.8861 70.5487 63.8861H77.8972C80.6174 63.8861 82.8098 66.042 82.8098 68.7169C82.8098 71.3918 80.6174 73.5477 77.8972 73.5477H70.5487Z" fill="#000137"/>
<path d="M55.1615 68.9964C55.1615 71.6713 52.9691 73.8271 50.2489 73.8271C47.5288 73.8271 45.3364 71.6713 45.3364 68.9964C45.3364 66.3215 47.5288 64.1656 50.2489 64.1656C52.9691 64.1656 55.1615 66.3215 55.1615 68.9964Z" fill="#000137"/>
<path d="M118.497 73.5477C115.777 73.5477 113.584 71.3918 113.584 68.7169C113.584 66.042 115.777 63.8861 118.497 63.8861H125.886C128.606 63.8861 130.798 66.042 130.798 68.7169C130.798 71.3918 128.606 73.5477 125.886 73.5477H118.497Z" fill="#000137"/>
<path d="M103.11 68.7169C103.11 71.3918 100.917 73.5477 98.197 73.5477C95.4768 73.5477 93.2844 71.3918 93.2844 68.7169C93.2844 66.042 95.4768 63.8861 98.197 63.8861C100.917 63.8861 103.11 66.042 103.11 68.7169Z" fill="#000137"/>
<path d="M36.2924 54.8929C32.1215 54.8929 28.5128 54.0904 25.4662 52.4855C22.4559 50.8806 20.1165 48.6158 18.4482 45.6913C16.8161 42.7667 16 39.3429 16 35.4197C16 31.4965 16.8161 28.0905 18.4482 25.2016C20.1165 22.2771 22.4559 20.0123 25.4662 18.4074C28.5128 16.8025 32.1215 16 36.2924 16C38.9401 16 41.352 16.3567 43.5281 17.07C45.7042 17.7476 47.5358 18.7284 49.0228 20.0123L46.0307 27.7695C44.3623 26.5926 42.8209 25.7723 41.4064 25.3086C40.0281 24.8093 38.4505 24.5596 36.6733 24.5596C33.4091 24.5596 30.8884 25.5048 29.1112 27.395C27.3703 29.2496 26.4998 31.9245 26.4998 35.4197C26.4998 38.9506 27.3703 41.6611 29.1112 43.5514C30.8884 45.406 33.4091 46.3333 36.6733 46.3333C38.4505 46.3333 40.0281 46.1014 41.4064 45.6378C42.8209 45.1385 44.3623 44.3003 46.0307 43.1234L49.0228 50.8806C47.5358 52.1645 45.7042 53.1631 43.5281 53.8764C41.352 54.5541 38.9401 54.8929 36.2924 54.8929Z" fill="#000137"/>
<path d="M49.5435 54.3044L67.4966 16.5885H75.6571L93.719 54.3044H83.6544L80.2458 46.6542H62.9766L59.6081 54.3044H49.5435ZM71.5224 26.7531L66.2295 39.1645H77.1326L71.7945 26.7531H71.5224Z" fill="#000137"/>
<path d="M95.5445 54.3044V16.5885H110.995C115.529 16.5885 119.355 17.3553 122.474 18.8889C125.593 20.3868 127.951 22.5446 129.547 25.3621C131.179 28.144 131.995 31.4965 131.995 35.4197C131.995 39.3072 131.179 42.6597 129.547 45.4773C127.951 48.2948 125.593 50.4704 122.474 52.004C119.355 53.5376 115.529 54.3044 110.995 54.3044H95.5445ZM105.609 46.2798H110.342C114.296 46.2798 117.215 45.3881 119.101 43.6049C121.023 41.8216 121.985 39.0932 121.985 35.4197C121.985 31.7105 121.023 28.9821 119.101 27.2345C117.215 25.4513 114.296 24.5596 110.342 24.5596H105.609V46.2798Z" fill="#000137"/>
<path d="M136.415 54.3044V16.5885H163.943V24.1317H146.044V31.3539H162.637V38.9506H146.044V46.7077H163.943V54.3044H136.415Z" fill="#000137"/>
<path d="M167.563 54.3044V16.5885H174.962L192.806 38.3628V16.5885H202.109V54.3044H194.71L176.975 32.5409V54.3044H167.563Z" fill="#000137"/>
<path d="M226.245 54.8929C222.074 54.8929 218.465 54.0904 215.419 52.4855C212.409 50.8806 210.069 48.6158 208.401 45.6913C206.769 42.7667 205.953 39.3429 205.953 35.4197C205.953 31.4965 206.769 28.0905 208.401 25.2016C210.069 22.2771 212.409 20.0123 215.419 18.4074C218.465 16.8025 222.074 16 226.245 16C228.893 16 231.305 16.3567 233.481 17.07C235.657 17.7476 237.489 18.7284 238.976 20.0123L235.983 27.7695C234.315 26.5926 232.774 25.7723 231.359 25.3086C229.981 24.8093 228.403 24.5596 226.626 24.5596C223.362 24.5596 220.841 25.5048 219.064 27.395C217.323 29.2496 216.453 31.9245 216.453 35.4197C216.453 38.9506 217.323 41.6611 219.064 43.5514C220.841 45.406 223.362 46.3333 226.626 46.3333C228.403 46.3333 229.981 46.1014 231.359 45.6378C232.774 45.1385 234.315 44.3003 235.983 43.1234L238.976 50.8806C237.489 52.1645 235.657 53.1631 233.481 53.8764C231.305 54.5541 228.893 54.8929 226.245 54.8929Z" fill="#000137"/>
<path d="M242.597 54.3044V16.5885H270.125V24.1317H252.227V31.3539H268.82V38.9506H252.227V46.7077H270.125V54.3044H242.597Z" fill="#000137"/>
<path d="M138.993 73.8671V64.487H135.252V63.4529H143.965V64.487H140.24V73.8671H138.993Z" fill="#000137"/>
<path d="M149.396 73.8671V63.4529H156.155V64.4574H150.612V68.0765H155.825V69.0958H150.612V72.8478H156.155V73.8671H149.396Z" fill="#000137"/>
<path d="M166.7 74C165.639 74 164.737 73.7834 163.996 73.35C163.255 72.9167 162.684 72.3012 162.284 71.5036C161.893 70.7059 161.698 69.7556 161.698 68.6526C161.698 67.5497 161.893 66.6043 162.284 65.8164C162.684 65.0188 163.255 64.4033 163.996 63.97C164.737 63.5367 165.639 63.32 166.7 63.32C167.451 63.32 168.122 63.4333 168.713 63.6598C169.304 63.8863 169.82 64.2162 170.26 64.6495L169.795 65.6244C169.314 65.2108 168.838 64.9104 168.368 64.7233C167.897 64.5264 167.346 64.4279 166.715 64.4279C165.503 64.4279 164.582 64.7972 163.951 65.5358C163.32 66.2744 163.005 67.3133 163.005 68.6526C163.005 69.9919 163.32 71.0358 163.951 71.7842C164.582 72.5228 165.503 72.8921 166.715 72.8921C167.346 72.8921 167.897 72.7986 168.368 72.6115C168.838 72.4145 169.314 72.1043 169.795 71.6808L170.26 72.6705C169.82 73.094 169.304 73.4239 168.713 73.6603C168.122 73.8868 167.451 74 166.7 74Z" fill="#000137"/>
<path d="M176.263 73.8671V63.4529H177.51V68.0617H183.894V63.4529H185.126V73.8671H183.894V69.1105H177.51V73.8671H176.263Z" fill="#000137"/>
<path d="M191.67 73.8671V63.4529H192.646L199.436 72.316H199.09V63.4529H200.247V73.8671H199.286L192.496 65.004H192.826V73.8671H191.67Z" fill="#000137"/>
<path d="M206.407 68.6526C206.407 67.5497 206.597 66.6043 206.978 65.8164C207.369 65.0188 207.924 64.4033 208.645 63.97C209.376 63.5367 210.253 63.32 211.274 63.32C212.266 63.32 213.127 63.5367 213.858 63.97C214.589 64.4033 215.15 65.0188 215.54 65.8164C215.941 66.6043 216.141 67.5447 216.141 68.6378C216.141 69.7408 215.941 70.6911 215.54 71.4888C215.14 72.2865 214.574 72.9069 213.843 73.35C213.122 73.7834 212.266 74 211.274 74C210.253 74 209.381 73.7834 208.66 73.35C207.939 72.9069 207.384 72.2865 206.993 71.4888C206.602 70.6911 206.407 69.7457 206.407 68.6526ZM207.714 68.6526C207.714 69.9919 208.014 71.0407 208.615 71.799C209.216 72.5474 210.102 72.9217 211.274 72.9217C212.396 72.9217 213.267 72.5474 213.888 71.799C214.519 71.0407 214.834 69.9919 214.834 68.6526C214.834 67.3035 214.524 66.2596 213.903 65.521C213.282 64.7726 212.406 64.3983 211.274 64.3983C210.102 64.3983 209.216 64.7726 208.615 65.521C208.014 66.2596 207.714 67.3035 207.714 68.6526Z" fill="#000137"/>
<path d="M222.307 73.8671V63.4529H223.554V72.8035H228.902V73.8671H222.307Z" fill="#000137"/>
<path d="M233.465 68.6526C233.465 67.5497 233.655 66.6043 234.036 65.8164C234.427 65.0188 234.982 64.4033 235.703 63.97C236.434 63.5367 237.311 63.32 238.332 63.32C239.324 63.32 240.185 63.5367 240.916 63.97C241.647 64.4033 242.208 65.0188 242.598 65.8164C242.999 66.6043 243.199 67.5447 243.199 68.6378C243.199 69.7408 242.999 70.6911 242.598 71.4888C242.198 72.2865 241.632 72.9069 240.901 73.35C240.18 73.7834 239.324 74 238.332 74C237.311 74 236.439 73.7834 235.718 73.35C234.997 72.9069 234.442 72.2865 234.051 71.4888C233.66 70.6911 233.465 69.7457 233.465 68.6526ZM234.772 68.6526C234.772 69.9919 235.072 71.0407 235.673 71.799C236.274 72.5474 237.161 72.9217 238.332 72.9217C239.454 72.9217 240.325 72.5474 240.946 71.799C241.577 71.0407 241.892 69.9919 241.892 68.6526C241.892 67.3035 241.582 66.2596 240.961 65.521C240.34 64.7726 239.464 64.3983 238.332 64.3983C237.161 64.3983 236.274 64.7726 235.673 65.521C235.072 66.2596 234.772 67.3035 234.772 68.6526Z" fill="#000137"/>
<path d="M254.232 74C253.071 74 252.099 73.7883 251.318 73.3648C250.537 72.9414 249.951 72.3308 249.56 71.5331C249.17 70.7354 248.975 69.7802 248.975 68.6674C248.975 67.5644 249.18 66.6141 249.59 65.8164C250.001 65.0188 250.592 64.4033 251.363 63.97C252.134 63.5367 253.066 63.32 254.157 63.32C254.928 63.32 255.594 63.4333 256.155 63.6598C256.726 63.8764 257.237 64.2014 257.687 64.6347L257.222 65.5949C256.891 65.3093 256.571 65.0828 256.26 64.9154C255.96 64.7479 255.644 64.6248 255.314 64.5461C254.983 64.4574 254.598 64.4131 254.157 64.4131C252.905 64.4131 251.944 64.7873 251.273 65.5358C250.612 66.2744 250.282 67.3232 250.282 68.6822C250.282 70.051 250.602 71.0998 251.243 71.8285C251.894 72.5573 252.9 72.9217 254.262 72.9217C254.763 72.9217 255.239 72.8773 255.689 72.7887C256.15 72.6902 256.596 72.5524 257.026 72.3751L256.756 73.0398V69.3764H254.052V68.4163H257.822V73.2466C257.392 73.4731 256.846 73.6553 256.185 73.7932C255.534 73.9311 254.883 74 254.232 74Z" fill="#000137"/>
<path d="M266.652 73.8671V69.0071L266.923 69.8344L262.536 63.4529H263.978L267.463 68.6378H267.148L270.618 63.4529H272L267.629 69.8344L267.899 69.0071V73.8671H266.652Z" fill="#000137"/>
</svg>
