<svg width="40" height="40" viewBox="0 0 40 40" fill="none" xmlns="http://www.w3.org/2000/svg">
<path d="M22 15H14V17H22V15Z" fill="#000137"/>
<path d="M22 19H14V21H22V19Z" fill="#000137"/>
<path d="M22 23H19V25H22V23Z" fill="#000137"/>
<path fill-rule="evenodd" clip-rule="evenodd" d="M26 19H29C29.2652 19 29.5196 19.1054 29.7071 19.2929C29.8946 19.4804 30 19.7348 30 20V26C30 27.654 28.654 29 27 29H13C11.346 29 10 27.654 10 26V12C10 11.7348 10.1054 11.4804 10.2929 11.2929C10.4804 11.1054 10.7348 11 11 11H25C25.2652 11 25.5196 11.1054 25.7071 11.2929C25.8946 11.4804 26 11.7348 26 12V19ZM12.2929 26.7071C12.4804 26.8946 12.7348 27 13 27H24.171C24.061 26.688 24 26.351 24 26V13H12V26C12 26.2652 12.1054 26.5196 12.2929 26.7071ZM27.7071 26.7071C27.8946 26.5196 28 26.2652 28 26V21H26V26C26 26.2652 26.1054 26.5196 26.2929 26.7071C26.4804 26.8946 26.7348 27 27 27C27.2652 27 27.5196 26.8946 27.7071 26.7071Z" fill="#000137"/>
</svg>
