<svg width="278" height="80" viewBox="0 0 278 80" fill="none" xmlns="http://www.w3.org/2000/svg">
<path d="M17.6007 67.5477C14.8805 67.5477 12.6881 65.3918 12.6881 62.7169C12.6881 60.042 14.8805 57.8861 17.6007 57.8861H24.9492C27.6694 57.8861 29.8617 60.042 29.8617 62.7169C29.8617 65.3918 27.6694 67.5477 24.9492 67.5477H17.6007Z" fill="#406E8E"/>
<path d="M65.5487 67.5477C62.8285 67.5477 60.6362 65.3918 60.6362 62.7169C60.6362 60.042 62.8285 57.8861 65.5487 57.8861H72.8972C75.6174 57.8861 77.8098 60.042 77.8098 62.7169C77.8098 65.3918 75.6174 67.5477 72.8972 67.5477H65.5487Z" fill="#406E8E"/>
<path d="M50.1615 62.9964C50.1615 65.6713 47.9691 67.8271 45.2489 67.8271C42.5288 67.8271 40.3364 65.6713 40.3364 62.9964C40.3364 60.3215 42.5288 58.1656 45.2489 58.1656C47.9691 58.1656 50.1615 60.3215 50.1615 62.9964Z" fill="#406E8E"/>
<path d="M113.497 67.5477C110.777 67.5477 108.584 65.3918 108.584 62.7169C108.584 60.042 110.777 57.8861 113.497 57.8861H120.886C123.606 57.8861 125.798 60.042 125.798 62.7169C125.798 65.3918 123.606 67.5477 120.886 67.5477H113.497Z" fill="#406E8E"/>
<path d="M98.1095 62.7169C98.1095 65.3918 95.9172 67.5477 93.197 67.5477C90.4768 67.5477 88.2844 65.3918 88.2844 62.7169C88.2844 60.042 90.4768 57.8861 93.197 57.8861C95.9172 57.8861 98.1095 60.042 98.1095 62.7169Z" fill="#406E8E"/>
<path d="M31.2924 48.8929C27.1215 48.8929 23.5128 48.0904 20.4662 46.4855C17.4559 44.8806 15.1165 42.6158 13.4482 39.6913C11.8161 36.7667 11 33.3429 11 29.4197C11 25.4965 11.8161 22.0905 13.4482 19.2016C15.1165 16.2771 17.4559 14.0123 20.4662 12.4074C23.5128 10.8025 27.1215 10 31.2924 10C33.9401 10 36.352 10.3567 38.5281 11.07C40.7042 11.7476 42.5358 12.7284 44.0228 14.0123L41.0307 21.7695C39.3623 20.5926 37.8209 19.7723 36.4064 19.3086C35.0281 18.8093 33.4505 18.5596 31.6733 18.5596C28.4091 18.5596 25.8884 19.5048 24.1112 21.395C22.3703 23.2496 21.4998 25.9245 21.4998 29.4197C21.4998 32.9506 22.3703 35.6611 24.1112 37.5514C25.8884 39.406 28.4091 40.3333 31.6733 40.3333C33.4505 40.3333 35.0281 40.1014 36.4064 39.6378C37.8209 39.1385 39.3623 38.3003 41.0307 37.1234L44.0228 44.8806C42.5358 46.1645 40.7042 47.1631 38.5281 47.8764C36.352 48.5541 33.9401 48.8929 31.2924 48.8929Z" fill="#000137"/>
<path d="M44.5435 48.3044L62.4966 10.5885H70.6571L88.719 48.3044H78.6544L75.2458 40.6542H57.9766L54.6081 48.3044H44.5435ZM66.5224 20.7531L61.2295 33.1645H72.1326L66.7945 20.7531H66.5224Z" fill="#000137"/>
<path d="M90.5445 48.3044V10.5885H105.995C110.529 10.5885 114.355 11.3553 117.474 12.8889C120.593 14.3868 122.951 16.5446 124.547 19.3621C126.179 22.144 126.995 25.4965 126.995 29.4197C126.995 33.3072 126.179 36.6597 124.547 39.4773C122.951 42.2948 120.593 44.4704 117.474 46.004C114.355 47.5376 110.529 48.3044 105.995 48.3044H90.5445ZM100.609 40.2798H105.342C109.296 40.2798 112.215 39.3881 114.101 37.6049C116.023 35.8216 116.985 33.0932 116.985 29.4197C116.985 25.7105 116.023 22.9821 114.101 21.2345C112.215 19.4513 109.296 18.5596 105.342 18.5596H100.609V40.2798Z" fill="#000137"/>
<path d="M131.415 48.3044V10.5885H158.943V18.1317H141.044V25.3539H157.637V32.9506H141.044V40.7077H158.943V48.3044H131.415Z" fill="#000137"/>
<path d="M162.563 48.3044V10.5885H169.962L187.806 32.3628V10.5885H197.109V48.3044H189.71L171.975 26.5409V48.3044H162.563Z" fill="#000137"/>
<path d="M221.245 48.8929C217.074 48.8929 213.465 48.0904 210.419 46.4855C207.409 44.8806 205.069 42.6158 203.401 39.6913C201.769 36.7667 200.953 33.3429 200.953 29.4197C200.953 25.4965 201.769 22.0905 203.401 19.2016C205.069 16.2771 207.409 14.0123 210.419 12.4074C213.465 10.8025 217.074 10 221.245 10C223.893 10 226.305 10.3567 228.481 11.07C230.657 11.7476 232.489 12.7284 233.976 14.0123L230.983 21.7695C229.315 20.5926 227.774 19.7723 226.359 19.3086C224.981 18.8093 223.403 18.5596 221.626 18.5596C218.362 18.5596 215.841 19.5048 214.064 21.395C212.323 23.2496 211.453 25.9245 211.453 29.4197C211.453 32.9506 212.323 35.6611 214.064 37.5514C215.841 39.406 218.362 40.3333 221.626 40.3333C223.403 40.3333 224.981 40.1014 226.359 39.6378C227.774 39.1385 229.315 38.3003 230.983 37.1234L233.976 44.8806C232.489 46.1645 230.657 47.1631 228.481 47.8764C226.305 48.5541 223.893 48.8929 221.245 48.8929Z" fill="#000137"/>
<path d="M237.597 48.3044V10.5885H265.125V18.1317H247.227V25.3539H263.82V32.9506H247.227V40.7077H265.125V48.3044H237.597Z" fill="#000137"/>
<path d="M133.993 67.8671V58.487H130.252V57.4529H138.965V58.487H135.24V67.8671H133.993Z" fill="#000137"/>
<path d="M144.396 67.8671V57.4529H151.155V58.4574H145.612V62.0765H150.825V63.0958H145.612V66.8478H151.155V67.8671H144.396Z" fill="#000137"/>
<path d="M161.7 68C160.639 68 159.737 67.7833 158.996 67.35C158.255 66.9167 157.684 66.3012 157.284 65.5036C156.893 64.7059 156.698 63.7556 156.698 62.6526C156.698 61.5497 156.893 60.6043 157.284 59.8164C157.684 59.0188 158.255 58.4033 158.996 57.97C159.737 57.5367 160.639 57.32 161.7 57.32C162.451 57.32 163.122 57.4333 163.713 57.6598C164.304 57.8863 164.82 58.2162 165.26 58.6495L164.795 59.6244C164.314 59.2108 163.838 58.9104 163.368 58.7233C162.897 58.5264 162.346 58.4279 161.715 58.4279C160.503 58.4279 159.582 58.7972 158.951 59.5358C158.32 60.2744 158.005 61.3133 158.005 62.6526C158.005 63.9919 158.32 65.0358 158.951 65.7842C159.582 66.5228 160.503 66.8921 161.715 66.8921C162.346 66.8921 162.897 66.7986 163.368 66.6115C163.838 66.4145 164.314 66.1043 164.795 65.6808L165.26 66.6705C164.82 67.094 164.304 67.4239 163.713 67.6603C163.122 67.8868 162.451 68 161.7 68Z" fill="#000137"/>
<path d="M171.263 67.8671V57.4529H172.51V62.0617H178.894V57.4529H180.126V67.8671H178.894V63.1105H172.51V67.8671H171.263Z" fill="#000137"/>
<path d="M186.67 67.8671V57.4529H187.646L194.436 66.316H194.09V57.4529H195.247V67.8671H194.286L187.496 59.004H187.826V67.8671H186.67Z" fill="#000137"/>
<path d="M201.407 62.6526C201.407 61.5497 201.597 60.6043 201.978 59.8164C202.369 59.0188 202.924 58.4033 203.645 57.97C204.376 57.5367 205.253 57.32 206.274 57.32C207.266 57.32 208.127 57.5367 208.858 57.97C209.589 58.4033 210.15 59.0188 210.54 59.8164C210.941 60.6043 211.141 61.5447 211.141 62.6378C211.141 63.7408 210.941 64.6911 210.54 65.4888C210.14 66.2865 209.574 66.9069 208.843 67.35C208.122 67.7833 207.266 68 206.274 68C205.253 68 204.381 67.7833 203.66 67.35C202.939 66.9069 202.384 66.2865 201.993 65.4888C201.602 64.6911 201.407 63.7457 201.407 62.6526ZM202.714 62.6526C202.714 63.9919 203.014 65.0407 203.615 65.799C204.216 66.5474 205.102 66.9217 206.274 66.9217C207.396 66.9217 208.267 66.5474 208.888 65.799C209.519 65.0407 209.834 63.9919 209.834 62.6526C209.834 61.3035 209.524 60.2596 208.903 59.521C208.282 58.7726 207.406 58.3983 206.274 58.3983C205.102 58.3983 204.216 58.7726 203.615 59.521C203.014 60.2596 202.714 61.3035 202.714 62.6526Z" fill="#000137"/>
<path d="M217.307 67.8671V57.4529H218.554V66.8035H223.902V67.8671H217.307Z" fill="#000137"/>
<path d="M228.465 62.6526C228.465 61.5497 228.655 60.6043 229.036 59.8164C229.427 59.0188 229.982 58.4033 230.703 57.97C231.434 57.5367 232.311 57.32 233.332 57.32C234.324 57.32 235.185 57.5367 235.916 57.97C236.647 58.4033 237.208 59.0188 237.598 59.8164C237.999 60.6043 238.199 61.5447 238.199 62.6378C238.199 63.7408 237.999 64.6911 237.598 65.4888C237.198 66.2865 236.632 66.9069 235.901 67.35C235.18 67.7833 234.324 68 233.332 68C232.311 68 231.439 67.7833 230.718 67.35C229.997 66.9069 229.442 66.2865 229.051 65.4888C228.66 64.6911 228.465 63.7457 228.465 62.6526ZM229.772 62.6526C229.772 63.9919 230.072 65.0407 230.673 65.799C231.274 66.5474 232.161 66.9217 233.332 66.9217C234.454 66.9217 235.325 66.5474 235.946 65.799C236.577 65.0407 236.892 63.9919 236.892 62.6526C236.892 61.3035 236.582 60.2596 235.961 59.521C235.34 58.7726 234.464 58.3983 233.332 58.3983C232.161 58.3983 231.274 58.7726 230.673 59.521C230.072 60.2596 229.772 61.3035 229.772 62.6526Z" fill="#000137"/>
<path d="M249.232 68C248.071 68 247.099 67.7883 246.318 67.3648C245.537 66.9414 244.951 66.3308 244.56 65.5331C244.17 64.7354 243.975 63.7802 243.975 62.6674C243.975 61.5644 244.18 60.6141 244.59 59.8164C245.001 59.0188 245.592 58.4033 246.363 57.97C247.134 57.5367 248.066 57.32 249.157 57.32C249.928 57.32 250.594 57.4333 251.155 57.6598C251.726 57.8764 252.237 58.2014 252.687 58.6347L252.222 59.5949C251.891 59.3093 251.571 59.0828 251.26 58.9154C250.96 58.7479 250.644 58.6248 250.314 58.5461C249.983 58.4574 249.598 58.4131 249.157 58.4131C247.905 58.4131 246.944 58.7873 246.273 59.5358C245.612 60.2744 245.282 61.3232 245.282 62.6822C245.282 64.051 245.602 65.0998 246.243 65.8286C246.894 66.5573 247.9 66.9217 249.262 66.9217C249.763 66.9217 250.239 66.8773 250.689 66.7887C251.15 66.6902 251.596 66.5524 252.026 66.3751L251.756 67.0398V63.3764H249.052V62.4163H252.822V67.2466C252.392 67.4731 251.846 67.6553 251.185 67.7932C250.534 67.9311 249.883 68 249.232 68Z" fill="#000137"/>
<path d="M261.652 67.8671V63.0071L261.923 63.8344L257.536 57.4529H258.978L262.463 62.6378H262.148L265.618 57.4529H267L262.629 63.8344L262.899 63.0071V67.8671H261.652Z" fill="#000137"/>
</svg>
