<svg width="40" height="40" viewBox="0 0 40 40" fill="none" xmlns="http://www.w3.org/2000/svg">
<path d="M10 28.175V10H12.1382V27.1059H29.2442V29.2442H11.0691C10.7856 29.2442 10.5136 29.1315 10.3131 28.931C10.1126 28.7305 10 28.4586 10 28.175Z" fill="#000137"/>
<path d="M23.4894 22.7481C23.3597 22.6944 23.2419 22.6155 23.1427 22.5162L20.6912 20.0647L16.1014 24.6544L14.5897 23.1427L19.9353 17.7971C20.0345 17.6977 20.1523 17.6189 20.282 17.5651C20.4117 17.5113 20.5508 17.4836 20.6912 17.4836C20.8316 17.4836 20.9706 17.5113 21.1003 17.5651C21.23 17.6189 21.3478 17.6977 21.447 17.7971L23.8985 20.2486L28.4883 15.6588L30 17.1706L24.6544 22.5162C24.5552 22.6155 24.4374 22.6944 24.3077 22.7481C24.178 22.8019 24.0389 22.8296 23.8985 22.8296C23.7581 22.8296 23.6191 22.8019 23.4894 22.7481Z" fill="#000137"/>
</svg>
