<svg width="40" height="40" viewBox="0 0 40 40" fill="none" xmlns="http://www.w3.org/2000/svg">
<path d="M24 22V20H16V22H24Z" fill="#000137"/>
<path d="M24 26V24H16V26H24Z" fill="#000137"/>
<path d="M18 16H16V18H18V16Z" fill="#000137"/>
<path fill-rule="evenodd" clip-rule="evenodd" d="M27.707 16.293C27.7892 16.3782 27.8556 16.4775 27.903 16.586C27.9154 16.6126 27.9239 16.6399 27.9326 16.668C27.9337 16.6717 27.9349 16.6753 27.936 16.679C27.9649 16.7625 27.9821 16.8497 27.987 16.938C27.9879 16.9481 27.9907 16.9576 27.9935 16.967C27.9968 16.9779 28 16.9887 28 17V28C28 29.103 27.103 30 26 30H14C12.897 30 12 29.103 12 28V12C12 10.897 12.897 10 14 10H21C21.0115 10 21.0224 10.0033 21.0333 10.0066C21.0424 10.0093 21.0515 10.0121 21.061 10.013C21.1492 10.0184 21.2363 10.0355 21.32 10.064C21.33 10.0674 21.3399 10.0706 21.3498 10.0737C21.3717 10.0806 21.3933 10.0874 21.414 10.097C21.5225 10.1444 21.6218 10.2108 21.707 10.293L27.707 16.293ZM22 16H24.586L22 13.414V16ZM14 12V28H26.002L26 18H21C20.7348 18 20.4804 17.8946 20.2929 17.7071C20.1054 17.5196 20 17.2652 20 17V12H14Z" fill="#000137"/>
</svg>
