<svg width="40" height="40" viewBox="0 0 40 40" fill="none" xmlns="http://www.w3.org/2000/svg">
<path fill-rule="evenodd" clip-rule="evenodd" d="M20 10C14.486 10 10 14.486 10 20C10 25.514 14.486 30 20 30C25.514 30 30 25.514 30 20C30 14.486 25.514 10 20 10ZM12 20C12 19.101 12.156 18.238 12.431 17.431L16 21V23L19 26V27.931C15.061 27.436 12 24.072 12 20ZM26.33 24.873C25.677 24.347 24.687 24 24 24V23C24 22.4696 23.7893 21.9609 23.4142 21.5858C23.0391 21.2107 22.5304 21 22 21H18V18C18.5304 18 19.0391 17.7893 19.4142 17.4142C19.7893 17.0391 20 16.5304 20 16V15H21C21.5304 15 22.0391 14.7893 22.4142 14.4142C22.7893 14.0391 23 13.5304 23 13V12.589C25.928 13.778 28 16.65 28 20C27.9998 21.7647 27.4123 23.4791 26.33 24.873Z" fill="#000137"/>
</svg>
