<svg width="41" height="41" viewBox="0 0 41 41" fill="none" xmlns="http://www.w3.org/2000/svg">
<path fill-rule="evenodd" clip-rule="evenodd" d="M29.7481 10.6001H11.9704C11.6757 10.6001 11.3931 10.7172 11.1847 10.9255C10.9763 11.1339 10.8593 11.4165 10.8593 11.7112V29.489C10.8593 29.7837 10.9763 30.0663 11.1847 30.2747C11.3931 30.483 11.6757 30.6001 11.9704 30.6001H29.7481C30.0428 30.6001 30.3254 30.483 30.5338 30.2747C30.7422 30.0663 30.8593 29.7837 30.8593 29.489V11.7112C30.8593 11.4165 30.7422 11.1339 30.5338 10.9255C30.3254 10.7172 30.0428 10.6001 29.7481 10.6001ZM16.7915 27.6412H13.8226V18.0968H16.7915V27.6412ZM15.307 16.7934C14.8509 16.7934 14.4134 16.6122 14.0908 16.2897C13.7682 15.9671 13.587 15.5296 13.587 15.0734C13.587 14.6173 13.7682 14.1798 14.0908 13.8572C14.4134 13.5346 14.8509 13.3534 15.307 13.3534C15.7632 13.3534 16.2007 13.5346 16.5233 13.8572C16.8458 14.1798 17.027 14.6173 17.027 15.0734C17.027 15.5296 16.8458 15.9671 16.5233 16.2897C16.2007 16.6122 15.7632 16.7934 15.307 16.7934ZM27.9015 27.6412H24.9359V23.0001C24.9359 21.8934 24.9159 20.4701 23.3937 20.4701C21.8493 20.4701 21.6148 21.6768 21.6148 22.9223V27.6423H18.6515V18.0979H21.4959V19.4023H21.537C21.9315 18.6523 22.9004 17.8612 24.3415 17.8612C27.3459 17.8612 27.9004 19.8368 27.9004 22.4079L27.9015 27.6412Z" fill="#000137"/>
</svg>
