<svg width="40" height="40" viewBox="0 0 40 40" fill="none" xmlns="http://www.w3.org/2000/svg">
<path fill-rule="evenodd" clip-rule="evenodd" d="M25.3428 29.8488C25.0973 29.9501 24.834 30.0015 24.5685 30C20.7266 29.9093 17.06 28.3741 14.2996 25.7004C11.6259 22.94 10.0907 19.2734 10 15.4315C9.9985 15.166 10.0499 14.9027 10.1512 14.6572C10.2525 14.4118 10.4016 14.1889 10.59 14.0017L13.2897 11.282C13.477 11.0957 13.7305 10.9912 13.9946 10.9912C14.2588 10.9912 14.5122 11.0957 14.6995 11.282L18.6991 15.2815C18.8853 15.4689 18.9899 15.7223 18.9899 15.9865C18.9899 16.2506 18.8853 16.504 18.6991 16.6914L17.1093 18.2912C17.4069 19.3979 17.9503 20.4233 18.6991 21.2909C19.5653 22.0417 20.5912 22.5854 21.6988 22.8807L23.2986 21.2909C23.486 21.1047 23.7394 21.0001 24.0035 21.0001C24.2677 21.0001 24.5211 21.1047 24.7085 21.2909L28.708 25.2905C28.8943 25.4778 28.9988 25.7312 28.9988 25.9954C28.9988 26.2596 28.8943 26.513 28.708 26.7003L25.9983 29.41C25.8111 29.5984 25.5882 29.7475 25.3428 29.8488ZM16.5893 16.0015L13.9996 13.4117L11.9998 15.4115C12.0854 18.7323 13.4126 21.9003 15.7194 24.2906C18.1087 26.5915 21.2726 27.9148 24.5885 28.0002L26.5883 26.0004L23.9985 23.4107L22.7087 24.7305C22.5913 24.8474 22.4466 24.9332 22.2878 24.9804C22.129 25.0275 21.9609 25.0344 21.7988 25.0005C20.128 24.6284 18.5795 23.837 17.2993 22.7007C16.1645 21.4195 15.3732 19.8714 14.9995 18.2012C14.9693 18.0366 14.981 17.867 15.0334 17.708C15.0858 17.549 15.1773 17.4058 15.2995 17.2913L16.5893 16.0015Z" fill="#000137"/>
<path d="M29.9979 19.0011H27.9981C28.0302 18.0733 27.8711 17.1488 27.5307 16.2851C27.1903 15.4214 26.6759 14.637 26.0195 13.9805C25.363 13.3241 24.5786 12.8097 23.7149 12.4693C22.8512 12.1289 21.9267 11.9698 20.9989 12.0019V10.0021C22.1877 9.97617 23.3696 10.1912 24.4731 10.6343C25.5766 11.0773 26.579 11.7393 27.4199 12.5801C28.2607 13.421 28.9227 14.4234 29.3657 15.5269C29.8088 16.6304 30.0238 17.8123 29.9979 19.0011Z" fill="#000137"/>
<path d="M23.9985 19.0012C23.9985 16.9015 23.0986 16.0016 20.9988 16.0016V14.0018C24.2185 14.0018 25.9983 15.7816 25.9983 19.0012H23.9985Z" fill="#000137"/>
</svg>
