<svg width="40" height="40" viewBox="0 0 40 40" fill="none" xmlns="http://www.w3.org/2000/svg">
<path d="M20 15H14V21H20V15Z" fill="#000137"/>
<path d="M14 23H26V25H14V23Z" fill="#000137"/>
<path d="M26 19H22V21H26V19Z" fill="#000137"/>
<path d="M26 15H22V17H26V15Z" fill="#000137"/>
<path fill-rule="evenodd" clip-rule="evenodd" d="M12.125 11H27.875C29.047 11 30 11.897 30 13V27C30 28.103 29.047 29 27.875 29H12.125C10.953 29 10 28.103 10 27V13C10 11.897 10.953 11 12.125 11ZM12.0381 26.9886C12.0588 26.9933 12.0881 27 12.125 27H27.875C27.96 27 28.005 26.964 28.012 26.954L28 13.008C27.9984 13.0187 27.9854 13.016 27.9615 13.0109C27.9407 13.0066 27.9118 13.0005 27.875 13H12.125C12.04 13 11.995 13.036 11.988 13.046L12 26.992C12.001 26.986 12.005 26.984 12.012 26.984C12.018 26.984 12.0268 26.986 12.0381 26.9886Z" fill="#000137"/>
</svg>
