<svg width="40" height="40" viewBox="0 0 40 40" fill="none" xmlns="http://www.w3.org/2000/svg">
<path d="M19.207 17.7929L20.933 19.5189L25.231 14.3589L26.769 15.6409L21.067 22.4809L17.793 19.2069L19.207 17.7929Z" fill="#000137"/>
<path fill-rule="evenodd" clip-rule="evenodd" d="M16 10H28C29.103 10 30 10.897 30 12V24C30 25.103 29.103 26 28 26H16C14.897 26 14 25.103 14 24V12C14 10.897 14.897 10 16 10ZM16 12V24H28.002L28 12H16Z" fill="#000137"/>
<path d="M10 15.9999H12V27.9999H24V29.9999H12C10.897 29.9999 10 29.1029 10 27.9999V15.9999Z" fill="#000137"/>
</svg>
