<svg width="40" height="40" viewBox="0 0 40 40" fill="none" xmlns="http://www.w3.org/2000/svg">
<path fill-rule="evenodd" clip-rule="evenodd" d="M18.4548 14.2795C18.9456 14.0828 19.4713 13.9878 20 14.0001C20.5286 13.9878 21.0543 14.0828 21.5451 14.2795C22.036 14.4761 22.4819 14.7703 22.8558 15.1442C23.2297 15.5182 23.5239 15.964 23.7206 16.4549C23.9172 16.9458 24.0123 17.4714 24 18.0001C24.0123 18.5287 23.9172 19.0544 23.7206 19.5453C23.5239 20.0361 23.2297 20.482 22.8558 20.8559C22.4819 21.2298 22.036 21.524 21.5451 21.7207C21.0543 21.9174 20.5286 22.0124 20 22.0001C19.4713 22.0124 18.9456 21.9174 18.4548 21.7207C17.9639 21.524 17.518 21.2298 17.1441 20.8559C16.7702 20.482 16.476 20.0361 16.2794 19.5453C16.0827 19.0544 15.9876 18.5287 16 18.0001C15.9876 17.4714 16.0827 16.9458 16.2794 16.4549C16.476 15.964 16.7702 15.5182 17.1441 15.1442C17.518 14.7703 17.9639 14.4761 18.4548 14.2795ZM19.2196 19.8741C19.4681 19.97 19.7339 20.0129 20 20.0001C20.266 20.0129 20.5318 19.97 20.7803 19.8741C21.0288 19.7781 21.2544 19.6312 21.4428 19.4429C21.6311 19.2545 21.778 19.0289 21.8739 18.7804C21.9699 18.5319 22.0128 18.2661 22 18.0001C22.0128 17.734 21.9699 17.4682 21.8739 17.2198C21.778 16.9713 21.6311 16.7456 21.4428 16.5573C21.2544 16.3689 21.0288 16.2221 20.7803 16.1261C20.5318 16.0301 20.266 15.9872 20 16.0001C19.7339 15.9872 19.4681 16.0301 19.2196 16.1261C18.9712 16.2221 18.7455 16.3689 18.5572 16.5573C18.3688 16.7456 18.2219 16.9713 18.126 17.2198C18.03 17.4682 17.9871 17.734 18 18.0001C17.9871 18.2661 18.03 18.5319 18.126 18.7804C18.2219 19.0289 18.3688 19.2545 18.5572 19.4429C18.7455 19.6312 18.9712 19.7781 19.2196 19.8741Z" fill="#000137"/>
<path fill-rule="evenodd" clip-rule="evenodd" d="M12.9662 12.9662C14.8343 11.0981 17.3583 10.0337 20 10C22.6417 10.0337 25.1657 11.0981 27.0338 12.9662C28.9019 14.8343 29.9663 17.3583 30 20C29.9877 21.5389 29.6203 23.0542 28.9265 24.4279C28.2327 25.8016 27.2312 26.9967 26 27.92V28H25.9C24.2068 29.2975 22.1332 30.0006 20 30.0006C17.8668 30.0006 15.7932 29.2975 14.1 28H14V27.92C12.7688 26.9967 11.7673 25.8016 11.0735 24.4279C10.3797 23.0542 10.0123 21.5389 10 20C10.0337 17.3583 11.0981 14.8343 12.9662 12.9662ZM17.1191 25.2336C16.5861 25.6629 16.216 26.2614 16.07 26.93C17.2611 27.6308 18.618 28.0004 20 28.0004C21.382 28.0004 22.7389 27.6308 23.93 26.93C23.784 26.2614 23.4139 25.6629 22.8809 25.2336C22.348 24.8044 21.6843 24.5702 21 24.57H19C18.3157 24.5702 17.652 24.8044 17.1191 25.2336ZM23.7689 23.4084C24.5891 23.9546 25.2296 24.7309 25.61 25.64C26.3593 24.903 26.9561 24.0255 27.3662 23.0578C27.7763 22.0901 27.9916 21.051 28 20C27.9741 17.8863 27.1229 15.8665 25.6282 14.3718C24.1335 12.8771 22.1137 12.0259 20 12C17.8863 12.0259 15.8665 12.8771 14.3718 14.3718C12.8771 15.8665 12.0259 17.8863 12 20C12.0084 21.051 12.2237 22.0901 12.6338 23.0578C13.0439 24.0255 13.6407 24.903 14.39 25.64C14.7704 24.7309 15.4109 23.9546 16.2311 23.4084C17.0513 22.8622 18.0146 22.5705 19 22.57H21C21.9854 22.5705 22.9487 22.8622 23.7689 23.4084Z" fill="#000137"/>
</svg>
