<svg width="450" height="110" viewBox="0 0 450 110" fill="none" xmlns="http://www.w3.org/2000/svg">
<path d="M0 0H450V110H0V0Z" fill="#F5FAF9"/>
<path d="M19.191 104.22C14.5792 104.22 10.8621 100.503 10.8621 95.8912C10.8621 91.2793 14.5792 87.5623 19.191 87.5623H31.65C36.2619 87.5623 39.9789 91.2793 39.9789 95.8912C39.9789 100.503 36.2619 104.22 31.65 104.22H19.191Z" fill="#191E1E"/>
<path d="M100.484 104.22C95.8721 104.22 92.1551 100.503 92.1551 95.8912C92.1551 91.2793 95.8721 87.5623 100.484 87.5623H112.943C117.555 87.5623 121.272 91.2793 121.272 95.8912C121.272 100.503 117.555 104.22 112.943 104.22H100.484Z" fill="#191E1E"/>
<path d="M74.3959 96.373C74.3959 100.985 70.6789 104.702 66.067 104.702C61.4551 104.702 57.7381 100.985 57.7381 96.373C57.7381 91.7612 61.4551 88.0441 66.067 88.0441C70.6789 88.0441 74.3959 91.7612 74.3959 96.373Z" fill="#191E1E"/>
<path d="M181.777 104.22C177.165 104.22 173.448 100.503 173.448 95.8912C173.448 91.2793 177.165 87.5623 181.777 87.5623H194.305C198.917 87.5623 202.634 91.2793 202.634 95.8912C202.634 100.503 198.917 104.22 194.305 104.22H181.777Z" fill="#191E1E"/>
<path d="M155.689 95.8912C155.689 100.503 151.972 104.22 147.36 104.22C142.748 104.22 139.031 100.503 139.031 95.8912C139.031 91.2793 142.748 87.5623 147.36 87.5623C151.972 87.5623 155.689 91.2793 155.689 95.8912Z" fill="#191E1E"/>
<path d="M42.4046 72.0567C35.3331 72.0567 29.2146 70.6732 24.0493 67.906C18.9455 65.1389 14.9793 61.2342 12.1507 56.1919C9.38356 51.1495 8 45.2463 8 38.4822C8 31.7182 9.38356 25.8457 12.1507 20.8649C14.9793 15.8225 18.9455 11.9178 24.0493 9.15069C29.2146 6.38356 35.3331 5 42.4046 5C46.8935 5 50.9827 5.61492 54.6722 6.84475C58.3617 8.01309 61.4671 9.70411 63.9882 11.9178L58.9151 25.2923C56.0865 23.263 53.4731 21.8487 51.075 21.0493C48.7383 20.1885 46.0634 19.758 43.0503 19.758C37.516 19.758 33.2424 21.3875 30.2293 24.6466C27.2777 27.8442 25.8019 32.4561 25.8019 38.4822C25.8019 44.5699 27.2777 49.2433 30.2293 52.5024C33.2424 55.6999 37.516 57.2987 43.0503 57.2987C46.0634 57.2987 48.7383 56.899 51.075 56.0996C53.4731 55.2387 56.0865 53.7937 58.9151 51.7645L63.9882 65.1389C61.4671 67.3526 58.3617 69.0744 54.6722 70.3042C50.9827 71.4726 46.8935 72.0567 42.4046 72.0567Z" fill="#191E1E"/>
<path d="M64.871 71.0421L95.3094 6.01461H109.145L139.768 71.0421H122.704L116.925 57.8521H87.646L81.9349 71.0421H64.871ZM102.135 23.5398L93.1611 44.9389H111.647L102.596 23.5398H102.135Z" fill="#191E1E"/>
<path d="M142.863 71.0421V6.01461H169.058C176.745 6.01461 183.232 7.33668 188.52 9.98083C193.809 12.5635 197.806 16.2837 200.511 21.1416C203.279 25.9379 204.662 31.7182 204.662 38.4822C204.662 45.1848 203.279 50.9651 200.511 55.8229C197.806 60.6808 193.809 64.4318 188.52 67.0759C183.232 69.72 176.745 71.0421 169.058 71.0421H142.863ZM159.927 57.2065H167.952C174.654 57.2065 179.604 55.6692 182.802 52.5946C186.061 49.52 187.69 44.8159 187.69 38.4822C187.69 32.0871 186.061 27.383 182.802 24.3699C179.604 21.2953 174.654 19.758 167.952 19.758H159.927V57.2065Z" fill="#191E1E"/>
<path d="M212.156 71.0421V6.01461H258.829V19.0201H228.482V31.4722H256.615V44.5699H228.482V57.9444H258.829V71.0421H212.156Z" fill="#191E1E"/>
<path d="M264.966 71.0421V6.01461H277.51L307.764 43.5566V6.01461H323.537V71.0421H310.993L280.923 33.5188V71.0421H264.966Z" fill="#191E1E"/>
<path d="M364.458 72.0567C357.386 72.0567 351.268 70.6732 346.103 67.906C340.999 65.1389 337.033 61.2342 334.204 56.1919C331.437 51.1495 330.053 45.2463 330.053 38.4822C330.053 31.7182 331.437 25.8457 334.204 20.8649C337.033 15.8225 340.999 11.9178 346.103 9.15069C351.268 6.38356 357.386 5 364.458 5C368.947 5 373.036 5.61492 376.726 6.84475C380.415 8.01309 383.52 9.70411 386.042 11.9178L380.968 25.2923C378.14 23.263 375.526 21.8487 373.128 21.0493C370.792 20.1885 368.117 19.758 365.104 19.758C359.569 19.758 355.296 21.3875 352.283 24.6466C349.331 27.8442 347.855 32.4561 347.855 38.4822C347.855 44.5699 349.331 49.2433 352.283 52.5024C355.296 55.6999 359.569 57.2987 365.104 57.2987C368.117 57.2987 370.792 56.899 373.128 56.0996C375.526 55.2387 378.14 53.7937 380.968 51.7645L386.042 65.1389C383.52 67.3526 380.415 69.0744 376.726 70.3042C373.036 71.4726 368.947 72.0567 364.458 72.0567Z" fill="#191E1E"/>
<path d="M392.182 71.0421V6.01461H438.854V19.0201H408.508V31.4722H436.64V44.5699H408.508V57.9444H438.854V71.0421H392.182Z" fill="#191E1E"/>
<path d="M216.527 104.771V88.5982H210.185V86.8154H224.957V88.5982H218.641V104.771H216.527Z" fill="#191E1E"/>
<path d="M234.164 104.771V86.8154H245.625V88.5473H236.227V94.7871H245.065V96.5444H236.227V103.013H245.625V104.771H234.164Z" fill="#191E1E"/>
<path d="M263.503 105C261.703 105 260.175 104.626 258.919 103.879C257.662 103.132 256.694 102.071 256.015 100.696C255.353 99.3205 255.022 97.682 255.022 95.7804C255.022 93.8787 255.353 92.2487 256.015 90.8904C256.694 89.5151 257.662 88.4539 258.919 87.7068C260.175 86.9597 261.703 86.5862 263.503 86.5862C264.776 86.5862 265.914 86.7815 266.916 87.172C267.917 87.5625 268.792 88.1313 269.539 88.8784L268.749 90.5593C267.934 89.8462 267.128 89.3283 266.33 89.0057C265.532 88.6661 264.598 88.4964 263.528 88.4964C261.474 88.4964 259.912 89.1331 258.842 90.4065C257.772 91.6799 257.238 93.4712 257.238 95.7804C257.238 98.0895 257.772 99.8893 258.842 101.18C259.912 102.453 261.474 103.09 263.528 103.09C264.598 103.09 265.532 102.929 266.33 102.606C267.128 102.266 267.934 101.732 268.749 101.001L269.539 102.708C268.792 103.438 267.917 104.007 266.916 104.414C265.914 104.805 264.776 105 263.503 105Z" fill="#191E1E"/>
<path d="M279.716 104.771V86.8154H281.83V94.7616H292.654V86.8154H294.742V104.771H292.654V96.5699H281.83V104.771H279.716Z" fill="#191E1E"/>
<path d="M305.837 104.771V86.8154H307.493L319.005 102.097H318.419V86.8154H320.38V104.771H318.75L307.238 89.4896H307.798V104.771H305.837Z" fill="#191E1E"/>
<path d="M330.824 95.7804C330.824 93.8787 331.146 92.2487 331.792 90.8904C332.454 89.5151 333.396 88.4539 334.619 87.7068C335.858 86.9597 337.344 86.5862 339.076 86.5862C340.756 86.5862 342.217 86.9597 343.456 87.7068C344.696 88.4539 345.646 89.5151 346.309 90.8904C346.988 92.2487 347.327 93.8702 347.327 95.7549C347.327 97.6566 346.988 99.295 346.309 100.67C345.629 102.046 344.67 103.115 343.431 103.879C342.208 104.626 340.756 105 339.076 105C337.344 105 335.867 104.626 334.644 103.879C333.422 103.115 332.479 102.046 331.817 100.67C331.155 99.295 330.824 97.665 330.824 95.7804ZM333.039 95.7804C333.039 98.0895 333.549 99.8978 334.568 101.205C335.586 102.496 337.089 103.141 339.076 103.141C340.977 103.141 342.454 102.496 343.507 101.205C344.577 99.8978 345.112 98.0895 345.112 95.7804C345.112 93.4542 344.585 91.6545 343.533 90.381C342.48 89.0906 340.994 88.4454 339.076 88.4454C337.089 88.4454 335.586 89.0906 334.568 90.381C333.549 91.6545 333.039 93.4542 333.039 95.7804Z" fill="#191E1E"/>
<path d="M357.781 104.771V86.8154H359.895V102.937H368.962V104.771H357.781Z" fill="#191E1E"/>
<path d="M376.699 95.7804C376.699 93.8787 377.022 92.2487 377.667 90.8904C378.329 89.5151 379.271 88.4539 380.494 87.7068C381.733 86.9597 383.219 86.5862 384.951 86.5862C386.632 86.5862 388.092 86.9597 389.331 87.7068C390.571 88.4539 391.522 89.5151 392.184 90.8904C392.863 92.2487 393.203 93.8702 393.203 95.7549C393.203 97.6566 392.863 99.295 392.184 100.67C391.505 102.046 390.545 103.115 389.306 103.879C388.083 104.626 386.632 105 384.951 105C383.219 105 381.742 104.626 380.519 103.879C379.297 103.115 378.354 102.046 377.692 100.67C377.03 99.295 376.699 97.665 376.699 95.7804ZM378.915 95.7804C378.915 98.0895 379.424 99.8978 380.443 101.205C381.462 102.496 382.964 103.141 384.951 103.141C386.852 103.141 388.33 102.496 389.382 101.205C390.452 99.8978 390.987 98.0895 390.987 95.7804C390.987 93.4542 390.461 91.6545 389.408 90.381C388.355 89.0906 386.869 88.4454 384.951 88.4454C382.964 88.4454 381.462 89.0906 380.443 90.381C379.424 91.6545 378.915 93.4542 378.915 95.7804Z" fill="#191E1E"/>
<path d="M411.908 105C409.939 105 408.292 104.635 406.967 103.905C405.643 103.175 404.65 102.122 403.988 100.747C403.325 99.3714 402.994 97.7245 402.994 95.8058C402.994 93.9042 403.342 92.2657 404.039 90.8904C404.735 89.5151 405.736 88.4539 407.044 87.7068C408.351 86.9597 409.93 86.5862 411.781 86.5862C413.088 86.5862 414.217 86.7815 415.168 87.172C416.136 87.5455 417.002 88.1058 417.766 88.8529L416.977 90.5084C416.416 90.016 415.873 89.6255 415.347 89.3368C414.837 89.0482 414.302 88.8359 413.742 88.7001C413.182 88.5473 412.528 88.4709 411.781 88.4709C409.659 88.4709 408.029 89.1161 406.891 90.4065C405.77 91.6799 405.21 93.4882 405.21 95.8313C405.21 98.1914 405.753 99.9997 406.84 101.256C407.944 102.513 409.65 103.141 411.959 103.141C412.808 103.141 413.615 103.064 414.379 102.912C415.16 102.742 415.915 102.504 416.645 102.198L416.187 103.345V97.0283H411.603V95.3729H417.995V103.701C417.265 104.092 416.34 104.406 415.219 104.643C414.116 104.881 413.012 105 411.908 105Z" fill="#191E1E"/>
<path d="M432.966 104.771V96.3916L433.424 97.8179L425.987 86.8154H428.432L434.341 95.7549H433.806L439.689 86.8154H442.033L434.621 97.8179L435.08 96.3916V104.771H432.966Z" fill="#191E1E"/>
</svg>
